<?xml version="1.0" encoding="UTF-8" standalone="no"?>
<svg width="52px" height="52px" viewBox="0 0 52 52" version="1.1" xmlns="http://www.w3.org/2000/svg" xmlns:xlink="http://www.w3.org/1999/xlink">
    <!-- Generator: Sketch 3.8.3 (29802) - http://www.bohemiancoding.com/sketch -->
    <title>arrow-right</title>
    <desc>Created with Sketch.</desc>
    <defs></defs>
    <g id="Page-1" stroke="none" stroke-width="1" fill="none" fill-rule="evenodd">
        <g id="02" transform="translate(-41.000000, -106.000000)" fill="#F3B202">
            <g id="Header" transform="translate(41.000000, 78.000000)">
                <g id="arrow-right" transform="translate(26.000000, 54.000000) rotate(-180.000000) translate(-26.000000, -54.000000) translate(0.000000, 28.000000)">
                    <path d="M26,52 C11.6405965,52 0,40.3594035 0,26 C0,11.6405965 11.6405965,0 26,0 C40.3594035,0 52,11.6405965 52,26 C52,40.3594035 40.3594035,52 26,52 L26,52 Z M26,4.33333333 C14.0338304,4.33333333 4.33333333,14.0338304 4.33333333,26 C4.33333333,37.9661696 14.0338304,47.6666667 26,47.6666667 C37.9661696,47.6666667 47.6666667,37.9661696 47.6666667,26 C47.6666667,14.0338304 37.9661696,4.33333333 26,4.33333333 L26,4.33333333 Z M38.9566667,26.1755 L38.9566667,26.234 C38.9427748,26.4253768 38.9064137,26.6144544 38.8483333,26.7973333 C38.805,26.8731667 38.7616667,26.936 38.7183333,27.014 C38.6437999,27.1654926 38.5490458,27.306166 38.4366667,27.4321667 C38.3634407,27.4999361 38.2835959,27.5601827 38.1983333,27.612 L32.6516667,35.828 C31.8887219,36.8401819 30.5089992,37.1581577 29.38,36.582 C28.8443271,36.3745509 28.4319523,35.9349143 28.2591723,35.3870752 C28.0863922,34.839236 28.1719315,34.242565 28.4916667,33.7653333 L32.2616667,28.1688333 L15.1666667,28.1688333 C13.9700497,28.1688333 13,27.1987836 13,26.0021667 C13,24.8055497 13.9700497,23.8355 15.1666667,23.8355 L32.2616667,23.8355 L28.4916667,18.2411667 C28.1727746,17.7637201 28.0877169,17.1673775 28.2604097,16.6198151 C28.4331024,16.0722528 28.8448944,15.6326088 29.38,15.4245 C30.5093414,14.8511297 31.8871942,15.1686746 32.6516667,16.1785 L38.155,24.3295 C38.1904644,24.3572486 38.2199452,24.3918886 38.2416667,24.4313333 C38.4283943,24.5895168 38.5892274,24.775937 38.7183333,24.9838333 L38.7183333,24.9838333 C38.8602998,25.2314849 38.9419481,25.5090892 38.9566667,25.7941667 L38.9566667,25.8288333 C38.9735471,25.8486005 38.9814018,25.874521 38.9783333,25.9003333 C38.9783333,25.935 39,25.9653333 39,26 C39,26.0346667 38.9783333,26.0671667 38.9783333,26.0996667 C38.9813476,26.1268087 38.9735652,26.1540473 38.9566667,26.1755 L38.9566667,26.1755 Z"></path>
                </g>
            </g>
        </g>
    </g>
</svg>