<?xml version="1.0" encoding="UTF-8" standalone="no"?>
<svg width="77px" height="50px" viewBox="0 0 77 50" version="1.1" xmlns="http://www.w3.org/2000/svg" xmlns:xlink="http://www.w3.org/1999/xlink">
    <!-- Generator: Sketch 39.1 (31720) - http://www.bohemiancoding.com/sketch -->
    <title>sansiri-logo</title>
    <desc>Created with Sketch.</desc>
    <defs></defs>
    <g id="Page-1" stroke="none" stroke-width="1" fill="none" fill-rule="evenodd">
        <g id="Home" transform="translate(-649.000000, -2960.000000)" fill="#000000">
            <g id="Content" transform="translate(128.000000, 420.000000)">
                <g id="Customers" transform="translate(521.000000, 2340.000000)">
                    <g id="row" transform="translate(0.000000, 197.000000)">
                        <g id="sansiri-logo" transform="translate(0.000000, 3.000000)">
                            <g id="Group" transform="translate(24.750000, 0.000000)">
                                <polygon id="Shape" points="8.855 29.4504762 0.165 26.3127619 17.6 26.3127619 27.28 29.4504762"></polygon>
                                <polygon id="Shape" points="8.855 23.8906667 0.165 21.0281905 17.6 21.0281905 27.28 23.8906667"></polygon>
                                <polygon id="Shape" points="8.855 18.3308571 0.165 15.7986667 17.6 15.7986667 27.28 18.3308571"></polygon>
                                <polygon id="Shape" points="8.855 12.716 0.165 10.5140952 17.6 10.5140952 27.28 12.716"></polygon>
                                <polygon id="Shape" points="8.855 7.15619048 0.165 5.28457143 17.6 5.28457143 27.28 7.15619048"></polygon>
                                <polygon id="Shape" points="8.855 1.59638095 0.165 0 17.6 0 27.28 1.59638095"></polygon>
                            </g>
                            <g id="Group" transform="translate(0.000000, 39.634286)">
                                <path d="M1.1,6.88095238 C1.045,6.936 1.045,7.04609524 1.045,7.10114286 C1.045,7.26628571 1.155,7.43142857 1.375,7.59657143 C1.595,7.76171429 1.87,7.92685714 2.2,8.092 C2.53,8.25714286 2.915,8.3672381 3.355,8.47733333 C3.795,8.58742857 4.235,8.64247619 4.62,8.64247619 C5.72,8.64247619 6.545,8.47733333 7.04,8.14704762 C7.535,7.8167619 7.81,7.37638095 7.81,6.88095238 C7.81,6.60571429 7.755,6.44057143 7.645,6.27542857 C7.535,6.11028571 7.37,6.00019048 7.15,5.89009524 C6.93,5.78 6.655,5.72495238 6.38,5.72495238 C6.105,5.66990476 5.775,5.66990476 5.445,5.66990476 L3.74,5.66990476 C3.135,5.66990476 2.585,5.55980952 2.09,5.44971429 C1.595,5.28457143 1.155,5.06438095 0.825,4.73409524 C0.495,4.40380952 0.33,3.90838095 0.33,3.1927619 C0.33,2.75238095 0.44,2.36704762 0.66,2.0367619 C0.88,1.70647619 1.21,1.37619048 1.65,1.156 C2.035,0.880761905 2.53,0.715619048 3.08,0.55047619 C3.63,0.385333333 4.235,0.330285714 4.895,0.330285714 C5.39,0.330285714 5.83,0.385333333 6.215,0.440380952 C6.6,0.495428571 6.93,0.60552381 7.205,0.660571429 C7.48,0.770666667 7.7,0.825714286 7.865,0.880761905 C8.03,0.935809524 8.195,0.990857143 8.305,0.990857143 C8.415,0.990857143 8.525,0.990857143 8.58,0.935809524 C8.635,0.880761905 8.69,0.825714286 8.745,0.770666667 L8.965,0.880761905 L7.975,2.91752381 L7.755,2.80742857 L7.755,2.5872381 C7.755,2.47714286 7.7,2.42209524 7.535,2.312 C7.37,2.20190476 7.205,2.09180952 6.93,1.98171429 C6.655,1.87161905 6.38,1.76152381 5.995,1.70647619 C5.61,1.65142857 5.225,1.59638095 4.84,1.59638095 C3.905,1.59638095 3.135,1.76152381 2.585,2.0367619 C2.035,2.36704762 1.76,2.75238095 1.76,3.24780952 C1.76,3.468 1.815,3.63314286 1.925,3.79828571 C2.035,3.90838095 2.2,4.01847619 2.42,4.12857143 C2.64,4.18361905 2.915,4.23866667 3.19,4.29371429 C3.465,4.29371429 3.795,4.3487619 4.125,4.3487619 L5.885,4.3487619 C6.49,4.3487619 7.04,4.45885714 7.535,4.624 C8.03,4.78914286 8.47,5.06438095 8.8,5.39466667 C9.13,5.78 9.295,6.27542857 9.295,6.99104762 C9.295,7.37638095 9.185,7.70666667 9.02,8.092 C8.8,8.42228571 8.525,8.75257143 8.14,9.02780952 C7.755,9.30304762 7.26,9.5232381 6.71,9.68838095 C6.16,9.85352381 5.5,9.90857143 4.73,9.90857143 C4.07,9.90857143 3.52,9.85352381 3.08,9.74342857 C2.64,9.63333333 2.2,9.5232381 1.87,9.41314286 C1.54,9.30304762 1.265,9.13790476 1.045,9.02780952 C0.825,8.91771429 0.66,8.86266667 0.55,8.86266667 C0.44,8.86266667 0.33,8.91771429 0.165,9.08285714 L0,8.9727619 L0.935,6.936 L1.1,6.88095238 L1.1,6.88095238 Z" id="Shape"></path>
                                <path d="M14.19,8.58742857 C14.135,8.69752381 14.08,8.80761905 14.025,8.91771429 C13.97,9.02780952 13.915,9.13790476 13.915,9.19295238 C13.915,9.30304762 14.025,9.35809524 14.19,9.35809524 L14.19,9.57828571 L12.1,9.57828571 L12.1,9.35809524 L12.265,9.35809524 C12.32,9.35809524 12.375,9.30304762 12.43,9.248 C12.485,9.19295238 12.54,9.08285714 12.595,8.9727619 C12.65,8.86266667 12.705,8.69752381 12.815,8.53238095 L16.005,1.37619048 C16.115,1.156 16.17,1.04590476 16.225,0.935809524 C16.28,0.825714286 16.28,0.770666667 16.28,0.715619048 C16.28,0.55047619 16.17,0.495428571 15.95,0.495428571 L15.95,0.275238095 L18.535,0.275238095 L18.535,0.495428571 C18.37,0.495428571 18.26,0.55047619 18.26,0.715619048 C18.26,0.770666667 18.315,0.880761905 18.37,0.990857143 C18.425,1.10095238 18.48,1.26609524 18.59,1.48628571 L22,8.53238095 C22.11,8.75257143 22.165,8.91771429 22.22,9.02780952 C22.275,9.13790476 22.33,9.248 22.385,9.30304762 C22.44,9.35809524 22.495,9.41314286 22.55,9.41314286 L22.77,9.41314286 L22.77,9.63333333 L20.35,9.63333333 L20.35,9.41314286 C20.515,9.41314286 20.57,9.41314286 20.625,9.35809524 C20.68,9.30304762 20.68,9.248 20.68,9.19295238 C20.68,9.13790476 20.68,9.08285714 20.625,9.02780952 C20.57,8.9727619 20.515,8.80761905 20.46,8.58742857 L19.8,7.15619048 L14.795,7.15619048 L14.19,8.58742857 L14.19,8.58742857 Z M19.195,6.0552381 L17.215,1.87161905 L15.4,6.0552381 L19.195,6.0552381 L19.195,6.0552381 Z" id="Shape"></path>
                                <path d="M34.65,7.32133333 L34.65,0.990857143 C34.65,0.880761905 34.595,0.770666667 34.54,0.660571429 C34.485,0.60552381 34.375,0.55047619 34.21,0.55047619 L34.21,0.330285714 L36.355,0.330285714 L36.355,0.55047619 C36.19,0.55047619 36.08,0.60552381 36.025,0.660571429 C35.97,0.715619048 35.915,0.825714286 35.915,0.990857143 L35.915,9.02780952 C35.915,9.13790476 35.97,9.248 36.025,9.35809524 C36.08,9.41314286 36.19,9.46819048 36.355,9.46819048 L36.355,9.68838095 L34.1,9.68838095 L34.1,9.46819048 C34.32,9.46819048 34.43,9.41314286 34.43,9.30304762 C34.43,9.19295238 34.43,9.13790476 34.375,9.08285714 C34.32,9.02780952 34.32,8.9727619 34.265,8.9727619 L27.995,1.81657143 L27.995,9.02780952 C27.995,9.13790476 28.05,9.248 28.105,9.35809524 C28.16,9.41314286 28.27,9.46819048 28.435,9.46819048 L28.435,9.68838095 L26.29,9.68838095 L26.29,9.46819048 C26.455,9.46819048 26.565,9.41314286 26.62,9.35809524 C26.675,9.30304762 26.73,9.19295238 26.73,9.02780952 L26.73,0.990857143 C26.73,0.880761905 26.675,0.770666667 26.62,0.660571429 C26.565,0.55047619 26.455,0.55047619 26.29,0.55047619 L26.29,0.330285714 L29.26,0.330285714 L29.26,0.55047619 C29.15,0.55047619 29.04,0.55047619 28.985,0.60552381 C28.93,0.60552381 28.93,0.660571429 28.93,0.770666667 C28.93,0.825714286 28.93,0.825714286 28.985,0.880761905 C29.04,0.935809524 29.04,0.935809524 29.095,0.990857143 L34.65,7.32133333 L34.65,7.32133333 L34.65,7.32133333 Z" id="Shape"></path>
                                <path d="M41.69,6.88095238 C41.635,6.936 41.635,7.04609524 41.635,7.10114286 C41.635,7.26628571 41.745,7.43142857 41.965,7.59657143 C42.185,7.76171429 42.46,7.92685714 42.79,8.092 C43.12,8.25714286 43.505,8.3672381 43.945,8.47733333 C44.385,8.58742857 44.825,8.64247619 45.21,8.64247619 C46.31,8.64247619 47.135,8.47733333 47.63,8.14704762 C48.125,7.8167619 48.4,7.37638095 48.4,6.88095238 C48.4,6.60571429 48.345,6.44057143 48.235,6.27542857 C48.125,6.11028571 47.96,6.00019048 47.74,5.89009524 C47.52,5.78 47.245,5.72495238 46.97,5.72495238 C46.695,5.66990476 46.365,5.66990476 46.035,5.66990476 L44.33,5.66990476 C43.725,5.66990476 43.175,5.55980952 42.68,5.44971429 C42.185,5.28457143 41.745,5.06438095 41.415,4.73409524 C41.085,4.40380952 40.92,3.90838095 40.92,3.1927619 C40.92,2.75238095 41.03,2.36704762 41.25,2.0367619 C41.47,1.70647619 41.8,1.37619048 42.24,1.156 C42.625,0.880761905 43.12,0.715619048 43.67,0.55047619 C44.22,0.385333333 44.825,0.330285714 45.485,0.330285714 C45.98,0.330285714 46.42,0.385333333 46.805,0.440380952 C47.19,0.495428571 47.52,0.60552381 47.795,0.660571429 C48.07,0.770666667 48.29,0.825714286 48.455,0.880761905 C48.62,0.935809524 48.785,0.990857143 48.895,0.990857143 C49.005,0.990857143 49.115,0.990857143 49.17,0.935809524 C49.225,0.880761905 49.28,0.825714286 49.335,0.770666667 L49.555,0.880761905 L48.565,2.91752381 L48.345,2.80742857 L48.345,2.5872381 C48.345,2.47714286 48.29,2.42209524 48.125,2.312 C47.96,2.20190476 47.795,2.09180952 47.52,1.98171429 C47.245,1.87161905 46.97,1.76152381 46.585,1.70647619 C46.2,1.65142857 45.815,1.59638095 45.43,1.59638095 C44.495,1.59638095 43.725,1.76152381 43.175,2.0367619 C42.625,2.36704762 42.35,2.75238095 42.35,3.24780952 C42.35,3.468 42.405,3.63314286 42.515,3.79828571 C42.625,3.90838095 42.79,4.01847619 43.01,4.12857143 C43.23,4.18361905 43.505,4.23866667 43.78,4.29371429 C44.055,4.29371429 44.385,4.3487619 44.715,4.3487619 L46.42,4.3487619 C47.025,4.3487619 47.575,4.45885714 48.07,4.624 C48.565,4.78914286 49.005,5.06438095 49.335,5.39466667 C49.665,5.78 49.83,6.27542857 49.83,6.99104762 C49.83,7.37638095 49.72,7.70666667 49.555,8.092 C49.335,8.42228571 49.06,8.75257143 48.675,9.02780952 C48.29,9.30304762 47.795,9.5232381 47.245,9.68838095 C46.695,9.85352381 46.035,9.90857143 45.265,9.90857143 C44.605,9.90857143 44.055,9.85352381 43.615,9.74342857 C43.175,9.63333333 42.735,9.5232381 42.405,9.41314286 C42.075,9.30304762 41.8,9.13790476 41.58,9.02780952 C41.36,8.91771429 41.195,8.86266667 41.085,8.86266667 C40.975,8.86266667 40.865,8.91771429 40.7,9.08285714 L40.535,8.9727619 L41.47,6.936 L41.69,6.88095238 L41.69,6.88095238 Z" id="Shape"></path>
                                <path d="M53.9,9.46819048 C54.065,9.46819048 54.175,9.41314286 54.23,9.35809524 C54.285,9.30304762 54.34,9.19295238 54.34,9.02780952 L54.34,0.990857143 C54.34,0.880761905 54.285,0.770666667 54.23,0.660571429 C54.175,0.60552381 54.065,0.55047619 53.9,0.55047619 L53.9,0.330285714 L56.21,0.330285714 L56.21,0.55047619 C56.045,0.55047619 55.935,0.60552381 55.88,0.660571429 C55.825,0.715619048 55.77,0.825714286 55.77,0.990857143 L55.77,9.02780952 C55.77,9.13790476 55.825,9.248 55.88,9.35809524 C55.935,9.41314286 56.045,9.46819048 56.21,9.46819048 L56.21,9.68838095 L53.9,9.68838095 L53.9,9.46819048 L53.9,9.46819048 Z" id="Shape"></path>
                                <path d="M62.92,9.35809524 C62.975,9.41314286 63.085,9.46819048 63.25,9.46819048 L63.25,9.68838095 L60.94,9.68838095 L60.94,9.46819048 C61.105,9.46819048 61.215,9.41314286 61.27,9.35809524 C61.325,9.30304762 61.38,9.19295238 61.38,9.02780952 L61.38,0.990857143 C61.38,0.880761905 61.325,0.770666667 61.27,0.660571429 C61.215,0.60552381 61.105,0.55047619 60.94,0.55047619 L60.94,0.330285714 L66.88,0.330285714 C68.035,0.330285714 68.86,0.55047619 69.41,0.990857143 C69.905,1.4312381 70.18,2.09180952 70.18,2.91752381 C70.18,3.63314286 69.96,4.23866667 69.575,4.67904762 C69.19,5.11942857 68.53,5.39466667 67.65,5.5047619 L69.85,8.9727619 C69.96,9.13790476 70.07,9.30304762 70.18,9.35809524 C70.235,9.41314286 70.4,9.46819048 70.565,9.46819048 L70.565,9.68838095 L68.035,9.68838095 L68.035,9.46819048 C68.2,9.46819048 68.31,9.46819048 68.31,9.41314286 C68.365,9.41314286 68.365,9.35809524 68.365,9.30304762 C68.365,9.248 68.31,9.19295238 68.255,9.08285714 L66.055,5.61485714 L62.81,5.61485714 L62.81,9.02780952 C62.81,9.19295238 62.865,9.248 62.92,9.35809524 L62.92,9.35809524 Z M66.715,4.45885714 C67.43,4.45885714 67.925,4.3487619 68.255,4.07352381 C68.53,3.79828571 68.695,3.41295238 68.695,2.97257143 C68.695,2.75238095 68.64,2.53219048 68.585,2.36704762 C68.53,2.20190476 68.42,2.0367619 68.255,1.92666667 C68.09,1.81657143 67.87,1.70647619 67.65,1.65142857 C67.375,1.59638095 67.045,1.59638095 66.66,1.59638095 L62.865,1.59638095 L62.865,4.45885714 L66.715,4.45885714 L66.715,4.45885714 Z" id="Shape"></path>
                                <path d="M74.69,9.46819048 C74.855,9.46819048 74.965,9.41314286 75.02,9.35809524 C75.075,9.30304762 75.13,9.19295238 75.13,9.02780952 L75.13,0.990857143 C75.13,0.880761905 75.075,0.770666667 75.02,0.660571429 C74.965,0.60552381 74.855,0.55047619 74.69,0.55047619 L74.69,0.330285714 L77,0.330285714 L77,0.55047619 C76.835,0.55047619 76.725,0.60552381 76.67,0.660571429 C76.615,0.715619048 76.56,0.825714286 76.56,0.990857143 L76.56,9.02780952 C76.56,9.13790476 76.615,9.248 76.67,9.35809524 C76.725,9.41314286 76.835,9.46819048 77,9.46819048 L77,9.68838095 L74.69,9.68838095 L74.69,9.46819048 L74.69,9.46819048 Z" id="Shape"></path>
                            </g>
                        </g>
                    </g>
                </g>
            </g>
        </g>
    </g>
</svg>